# Blender v2.72 (sub 0) OBJ File: 'led.blend'
# www.blender.org
o Cylinder
v 0.000000 -0.921172 -1.124562
v 0.219391 -0.921172 -1.102954
v 0.430351 -0.921172 -1.038960
v 0.624773 -0.921172 -0.935039
v 0.795185 -0.921172 -0.795185
v 0.478366 -0.492880 -1.063832
v 0.935039 -0.921172 -0.624773
v 1.038960 -0.921172 -0.430351
v 1.102954 -0.921172 -0.219391
v 1.062085 -0.492880 -0.409287
v 1.124562 -0.921172 -0.000000
v 1.102954 -0.921172 0.219391
v 1.038960 -0.921172 0.430351
v 0.935039 -0.921172 0.624773
v 1.091204 -0.492879 0.364887
v 0.795185 -0.921172 0.795185
v 0.624773 -0.921172 0.935039
v 0.701081 -0.492879 0.885489
v 0.430351 -0.921172 1.038960
v 0.219391 -0.921172 1.102954
v -0.000000 -0.921172 1.124562
v -0.219392 -0.921172 1.102954
v 0.080474 -0.492880 1.147777
v -0.430352 -0.921172 1.038960
v -0.624774 -0.921172 0.935039
v -0.549799 -0.492880 0.986573
v -0.795186 -0.921172 0.795185
v -0.935040 -0.921172 0.624773
v -1.038960 -0.921172 0.430350
v -1.102954 -0.921172 0.219390
v -1.029612 -0.492880 0.513583
v -1.124562 -0.921172 -0.000001
v -1.102954 -0.921172 -0.219392
v -1.038959 -0.921172 -0.430352
v -0.935038 -0.921172 -0.624774
v -1.091204 -0.492879 -0.364888
v -0.795184 -0.921172 -0.795186
v -0.624772 -0.921172 -0.935040
v -0.430350 -0.921172 -1.038960
v -0.219389 -0.921172 -1.102954
v -0.513583 -0.492880 -1.029613
v 0.368132 -0.492879 -0.969710
v 0.402863 1.057086 -0.910771
v -0.382683 0.840905 -0.923880
v -0.386285 -0.492880 -0.932579
v -0.089695 1.101446 -0.982954
v 0.180259 1.499560 -0.744884
v 0.842894 0.988636 -0.545262
v 0.925174 -0.492879 -0.410471
v -0.699217 0.988679 -0.720318
v -0.300570 1.411424 -0.795970
v 0.704831 1.342571 -0.536453
v -0.888390 -0.492880 -0.507540
v 0.992793 0.986255 -0.084144
v 0.983153 -0.492879 0.298236
v -0.056705 1.853561 -0.025780
v 0.188232 1.740501 -0.425623
v 0.431849 1.694105 -0.361608
v -1.001295 -0.492879 0.098619
v 0.891747 1.337950 0.078712
v 0.922773 0.998756 0.389725
v -0.969735 1.075387 0.212651
v -0.942204 1.186030 -0.228649
v -0.681465 1.427630 -0.479580
v -0.248464 1.738948 -0.403561
v 0.638519 1.624886 -0.062895
v 0.480486 -0.492879 0.898926
v -0.716880 1.178497 0.653733
v -0.622164 1.629308 -0.099962
v -0.772305 -0.492880 0.671103
v 0.570135 1.620403 0.283856
v 0.679909 1.155726 0.702560
v -0.481601 0.986244 0.872226
v 0.241751 1.820122 0.077123
v 0.379612 1.506963 0.666100
v 0.284862 1.080441 0.943643
v -0.097935 1.080444 0.980826
v -0.172707 -0.492880 0.997299
v -0.632895 1.585220 0.297128
v 0.206036 1.739484 0.417175
v -0.009031 1.488490 0.775286
v -0.395463 1.428928 0.736252
v -0.299425 1.803740 0.034915
v -0.154488 1.732822 0.451036
v -0.831469 0.840906 -0.555570
v -0.831468 0.840905 -0.555570
v -0.831469 0.840904 -0.555570
v -1.000000 0.840905 -0.000000
v -0.999999 0.840905 -0.000000
v -0.923879 0.840906 -0.382684
v -0.923881 0.840906 -0.382685
v -0.923879 0.840904 -0.382684
v -0.382683 0.840903 -0.923880
v 0.000000 -0.921172 -1.124562
v 0.219391 -0.921172 -1.102954
v 0.430351 -0.921172 -1.038960
v 0.624773 -0.921172 -0.935039
v 0.795185 -0.921172 -0.795185
v 0.935039 -0.921172 -0.624773
v 1.062085 -0.492880 -0.409287
v 0.478366 -0.492880 -1.063832
v 1.038960 -0.921172 -0.430351
v 1.102954 -0.921172 -0.219391
v 1.124562 -0.921172 -0.000000
v 1.091204 -0.492879 0.364887
v 1.102954 -0.921172 0.219391
v 1.038960 -0.921172 0.430351
v 0.935039 -0.921172 0.624773
v 0.795185 -0.921172 0.795185
v 0.701081 -0.492879 0.885489
v 0.624773 -0.921172 0.935039
v 0.430351 -0.921172 1.038960
v 0.080474 -0.492880 1.147777
v 0.219391 -0.921172 1.102954
v -0.000000 -0.921172 1.124562
v -0.219392 -0.921172 1.102954
v -0.430352 -0.921172 1.038960
v -0.549799 -0.492880 0.986573
v -0.624774 -0.921172 0.935039
v -0.795186 -0.921172 0.795185
v -1.029612 -0.492880 0.513583
v -0.935040 -0.921172 0.624773
v -1.038960 -0.921172 0.430350
v -1.102954 -0.921172 0.219390
v -1.124562 -0.921172 -0.000001
v -1.091204 -0.492879 -0.364888
v -1.102954 -0.921172 -0.219392
v -1.038959 -0.921172 -0.430352
v -0.935038 -0.921172 -0.624774
v -0.795184 -0.921172 -0.795186
v -0.513583 -0.492880 -1.029613
v -0.624772 -0.921172 -0.935040
v -0.430350 -0.921172 -1.038960
v -0.219389 -0.921172 -1.102954
v 0.368132 -0.492879 -0.969710
v 0.368132 -0.492879 -0.969710
v 0.983153 -0.492879 0.298236
v 0.983153 -0.492879 0.298236
v -0.172707 -0.492880 0.997299
v -0.772305 -0.492880 0.671103
v -1.001295 -0.492879 0.098619
v -0.888390 -0.492880 -0.507540
v -0.386285 -0.492880 -0.932579
v 0.925174 -0.492879 -0.410471
v 0.480486 -0.492879 0.898926
vn 0.988300 0.053200 -0.143100
vn 0.929300 0.059700 -0.364400
vn 0.951400 0.031900 0.306400
vn 0.613000 0.033400 0.789400
vn 0.731000 0.031700 0.681700
vn 0.516300 0.036100 0.855600
vn 0.074900 0.023100 0.996900
vn -0.494700 0.033400 0.868400
vn -0.350100 0.031700 0.936200
vn -0.592900 0.036100 0.804400
vn -0.899800 0.042000 0.434200
vn -0.986200 0.082200 0.143400
vn -0.946500 0.060300 -0.317100
vn -0.798800 0.082200 -0.596000
vn -0.435200 0.068600 -0.897700
vn -0.124500 0.109600 -0.986100
vn 0.401400 0.049200 -0.914600
vn 0.000000 1.000000 -0.000000
vn -0.298400 0.559700 -0.773000
vn -0.243600 0.873600 -0.421200
vn 0.132000 0.891700 -0.432800
vn 0.000000 -1.000000 -0.000000
vn -0.084900 0.248700 -0.964800
vn 0.405600 0.226000 -0.885700
vn -0.011500 -0.011600 -0.999900
vn -0.386300 0.096500 -0.917300
vn -0.365700 -0.021400 -0.930500
vn -0.691500 0.178300 -0.699900
vn 0.178500 0.649000 -0.739500
vn 0.828300 0.166700 -0.534900
vn 0.692700 -0.015400 -0.721000
vn 0.696000 0.494500 -0.520600
vn -0.923200 0.319100 -0.214000
vn -0.868700 -0.007600 -0.495200
vn -0.657300 0.580200 -0.480800
vn -0.995400 -0.002500 0.095600
vn -0.947100 0.237100 0.216300
vn 0.979000 0.171900 -0.109000
vn 0.907400 -0.022100 -0.419700
vn 0.871500 0.485000 0.071800
vn 0.770100 -0.014800 0.637700
vn 0.905400 0.170100 0.389000
vn 0.670400 0.303800 0.676900
vn 0.999200 -0.016200 -0.037700
vn 0.439000 0.823500 -0.359400
vn 0.638800 0.765800 -0.073500
vn -0.040300 0.998800 -0.025500
vn 0.248200 0.966100 0.071000
vn -0.726300 0.307900 0.614500
vn -0.751200 -0.009300 0.660100
vn -0.634100 0.766300 -0.102700
vn 0.484500 -0.003900 0.874800
vn 0.283000 0.222400 0.933000
vn -0.092400 0.226000 0.969700
vn -0.636800 0.716100 0.285600
vn -0.323300 0.944900 0.050100
vn -0.466900 0.140900 0.873000
vn 0.584100 0.750500 0.309000
vn -0.164700 -0.007800 0.986300
vn -0.378900 0.583000 0.718700
vn 0.376000 0.653100 0.657300
vn 0.184200 0.881700 0.434300
vn -0.155900 0.882100 0.444400
vn 0.013500 0.644400 0.764500
vn -0.050400 0.195200 -0.979500
vn 0.161400 -0.007400 -0.986900
vn 0.376200 -0.095700 -0.921600
vn 0.576800 -0.048100 -0.815500
vn 0.734100 0.124300 -0.667600
vn 0.798900 0.079100 -0.596300
vn 0.921900 -0.030800 -0.386300
vn 0.992500 0.114200 -0.043300
vn 0.984000 -0.032400 0.174900
vn 0.918100 -0.051900 0.392900
vn 0.808100 0.060800 0.585900
vn 0.419800 0.114200 0.900400
vn 0.215000 -0.032400 0.976100
vn -0.011600 -0.051900 0.998600
vn -0.232000 0.060800 0.970800
vn -0.671200 0.114200 0.732400
vn -0.819500 -0.032400 0.572100
vn -0.927000 -0.051900 0.371400
vn -0.992500 0.114200 0.043300
vn -0.984000 -0.032400 -0.174900
vn -0.918100 -0.051900 -0.392900
vn -0.732400 0.114200 -0.671200
vn -0.572100 -0.032400 -0.819500
vn -0.371400 -0.051900 -0.927000
s 1
f 103//1 100//2 15//3
f 15//3 18//4 16//5
f 111//6 18//4 23//7
f 23//7 26//8 24//9
f 119//10 26//8 31//11
f 124//12 31//11 36//13
f 129//14 36//13 41//15
f 134//16 41//15 6//17
f 131//18 136//18 101//18
f 51//19 65//20 57//21
f 40//22 1//22 2//22
f 46//23 43//24 42//25
f 44//26 46//23 45//27
f 50//28 44//26 45//27
f 51//19 47//29 46//23
f 43//24 48//30 135//31
f 47//29 52//32 43//24
f 63//33 50//28 53//34
f 50//28 64//35 51//19
f 141//36 62//37 63//33
f 48//30 54//38 49//39
f 48//30 52//32 60//40
f 55//41 61//42 72//43
f 54//38 61//42 138//44
f 58//45 66//46 52//32
f 56//47 74//48 57//21
f 68//49 62//37 70//50
f 69//51 64//35 63//33
f 64//35 69//51 65//20
f 67//52 76//53 77//54
f 62//37 79//55 63//33
f 69//51 83//56 65//20
f 61//42 60//40 72//43
f 73//57 68//49 70//50
f 83//56 56//47 65//20
f 58//45 74//48 66//46
f 60//40 66//46 71//58
f 72//43 76//53 67//52
f 77//54 73//57 78//59
f 73//57 82//60 68//49
f 72//43 71//58 75//61
f 75//61 80//62 84//63
f 68//49 82//60 79//55
f 75//61 81//64 76//53
f 82//60 84//63 79//55
f 84//63 83//56 79//55
f 81//64 82//60 77//54
f 56//47 83//56 84//63
f 80//62 74//48 56//47
f 118//18 139//18 140//18
f 136//18 131//18 143//18
f 113//18 110//18 145//18
f 131//18 142//18 143//18
f 126//18 142//18 131//18
f 136//18 144//18 101//18
f 144//18 137//18 10//18
f 126//18 59//18 142//18
f 121//18 59//18 126//18
f 121//18 140//18 59//18
f 144//18 10//18 101//18
f 145//18 105//18 137//18
f 145//18 110//18 105//18
f 121//18 118//18 140//18
f 118//18 113//18 139//18
f 139//18 113//18 145//18
f 137//18 105//18 10//18
f 50//28 46//23 44//26
f 94//65 6//17 95//66
f 95//66 6//17 96//67
f 96//67 6//17 97//68
f 97//68 6//17 98//69
f 99//70 100//2 102//71
f 102//71 100//2 103//1
f 11//72 15//3 106//73
f 106//73 15//3 107//74
f 107//74 15//3 108//75
f 16//5 18//4 111//6
f 19//76 23//7 114//77
f 114//77 23//7 115//78
f 115//78 23//7 116//79
f 24//9 26//8 119//10
f 27//80 31//11 122//81
f 122//81 31//11 123//82
f 123//82 31//11 124//12
f 32//83 36//13 127//84
f 127//84 36//13 128//85
f 128//85 36//13 129//14
f 37//86 41//15 132//87
f 132//87 41//15 133//88
f 133//88 41//15 134//16
f 45//27 46//23 42//25
f 45//27 53//34 50//28
f 46//23 47//29 43//24
f 135//31 48//30 49//39
f 46//23 50//28 51//19
f 48//30 43//24 52//32
f 52//32 47//29 58//45
f 65//20 56//47 57//21
f 47//29 57//21 58//45
f 49//39 54//38 138//44
f 50//28 63//33 64//35
f 64//35 65//20 51//19
f 70//50 62//37 141//36
f 6//17 100//2 99//70
f 52//32 66//46 60//40
f 61//42 54//38 60//40
f 57//21 74//48 58//45
f 63//33 79//55 69//51
f 78//59 73//57 70//50
f 68//49 79//55 62//37
f 72//43 60//40 71//58
f 69//51 79//55 83//56
f 66//46 74//48 71//58
f 75//61 71//58 80//62
f 72//43 75//61 76//53
f 73//57 77//54 82//60
f 71//58 74//48 80//62
f 76//53 81//64 77//54
f 82//60 81//64 84//63
f 84//63 80//62 56//47
f 11//72 103//1 15//3
f 108//75 15//3 16//5
f 19//76 111//6 23//7
f 116//79 23//7 24//9
f 27//80 119//10 31//11
f 32//83 124//12 36//13
f 37//86 129//14 41//15
f 94//65 134//16 6//17
f 47//29 51//19 57//21
f 53//34 141//36 63//33
f 130//22 38//22 39//22
f 34//22 35//22 130//22
f 125//22 33//22 34//22
f 125//22 120//22 30//22
f 29//22 30//22 28//22
f 117//22 25//22 120//22
f 21//22 22//22 117//22
f 4//22 5//22 8//22
f 112//22 20//22 17//22
f 13//22 14//22 109//22
f 104//22 12//22 13//22
f 13//22 20//22 104//22
f 5//22 7//22 8//22
f 54//38 48//30 60//40
f 9//22 104//22 2//22
f 4//22 9//22 2//22
f 125//22 34//22 130//22
f 30//22 120//22 28//22
f 21//22 117//22 120//22
f 20//22 109//22 17//22
f 20//22 21//22 104//22
f 104//22 39//22 40//22
f 9//22 4//22 8//22
f 2//22 3//22 4//22
f 21//22 120//22 125//22
f 13//22 109//22 20//22
f 40//22 2//22 104//22
f 39//22 104//22 21//22
f 130//22 39//22 21//22
f 21//22 125//22 130//22
f 67//52 55//41 72//43
f 78//59 67//52 77//54
f 81//64 75//61 84//63
f 98//69 6//17 99//70
l 85 86
l 86 87
l 88 89
l 90 91
l 91 92
l 93 44
