# Blender v2.72 (sub 0) OBJ File: ''
# www.blender.org
o Cube
v -1.000000 -1.000000 1.000000
v -1.000000 -1.000000 -1.000000
v 1.000000 -1.000000 -1.000000
v 1.000000 -1.000000 1.000000
v -1.000000 1.000000 1.000000
v -1.000000 1.000000 -1.000000
v 1.000000 1.000000 -1.000000
v 1.000000 1.000000 1.000000
vn -0.577300 0.577300 -0.577300
vn -0.577300 -0.577300 -0.577300
vn -0.577300 -0.577300 0.577300
vn 0.577300 0.577300 -0.577300
vn 0.577300 -0.577300 -0.577300
vn 0.577300 0.577300 0.577300
vn 0.577300 -0.577300 0.577300
vn -0.577300 0.577300 0.577300
s 1
f 6//1 2//2 1//3
f 7//4 3//5 2//2
f 8//6 4//7 3//5
f 5//8 1//3 4//7
f 2//2 3//5 4//7
f 7//4 6//1 5//8
f 5//8 6//1 1//3
f 6//1 7//4 2//2
f 7//4 8//6 3//5
f 8//6 5//8 4//7
f 1//3 2//2 4//7
f 8//6 7//4 5//8
