# Blender v2.72 (sub 0) OBJ File: 'flatled.blend'
# www.blender.org
o Cube
v -0.015000 -0.002935 0.015000
v -0.015000 -0.002935 -0.015000
v 0.015000 -0.002935 -0.015000
v 0.015000 -0.002935 0.015000
v -0.015000 0.002935 0.015000
v 0.015000 0.002935 0.015000
v -0.015000 0.002935 -0.015000
v 0.015000 0.002935 -0.015000
v 0.012160 0.002935 0.000000
v -0.012160 0.002935 0.000000
v -0.012102 0.002935 -0.001192
v -0.011927 0.002935 -0.002372
v -0.011637 0.002935 -0.003530
v -0.011235 0.002935 -0.004654
v -0.010724 0.002935 -0.005732
v -0.010111 0.002935 -0.006756
v -0.009400 0.002935 -0.007714
v -0.008599 0.002935 -0.008599
v -0.007714 0.002935 -0.009400
v -0.006756 0.002935 -0.010111
v -0.005732 0.002935 -0.010724
v -0.004654 0.002935 -0.011235
v -0.003530 0.002935 -0.011637
v -0.002372 0.002935 -0.011927
v -0.001192 0.002935 -0.012102
v -0.000000 0.002935 -0.012160
v 0.001192 0.002935 -0.012102
v 0.002372 0.002935 -0.011927
v 0.003530 0.002935 -0.011637
v 0.004654 0.002935 -0.011235
v 0.005732 0.002935 -0.010724
v 0.006756 0.002935 -0.010111
v 0.007714 0.002935 -0.009400
v 0.008599 0.002935 -0.008599
v 0.009400 0.002935 -0.007714
v 0.010111 0.002935 -0.006756
v 0.010724 0.002935 -0.005732
v 0.011235 0.002935 -0.004654
v 0.011637 0.002935 -0.003530
v 0.011927 0.002935 -0.002372
v 0.012102 0.002935 -0.001192
v 0.010111 0.002935 0.006756
v 0.009400 0.002935 0.007714
v 0.008599 0.002935 0.008599
v 0.007714 0.002935 0.009400
v 0.006756 0.002935 0.010111
v 0.005732 0.002935 0.010724
v 0.004654 0.002935 0.011235
v 0.003530 0.002935 0.011637
v 0.002372 0.002935 0.011927
v 0.001192 0.002935 0.012102
v -0.000000 0.002935 0.012160
v -0.001192 0.002935 0.012102
v -0.002372 0.002935 0.011927
v -0.003530 0.002935 0.011637
v -0.004654 0.002935 0.011235
v -0.005732 0.002935 0.010724
v -0.006756 0.002935 0.010111
v -0.007714 0.002935 0.009400
v -0.008599 0.002935 0.008599
v -0.009400 0.002935 0.007714
v -0.010111 0.002935 0.006756
v -0.010724 0.002935 0.005732
v -0.011235 0.002935 0.004654
v -0.011637 0.002935 0.003530
v -0.011927 0.002935 0.002372
v -0.012102 0.002935 0.001192
v 0.012102 0.002935 0.001192
v 0.011927 0.002935 0.002372
v 0.011637 0.002935 0.003530
v 0.011235 0.002935 0.004654
v 0.010724 0.002935 0.005732
v 0.001045 -0.000065 -0.010609
v 0.002080 -0.000065 -0.010455
v 0.003095 -0.000065 -0.010201
v 0.009849 -0.000065 0.004080
v 0.010201 -0.000065 0.003095
v 0.010455 -0.000065 0.002080
v 0.010609 -0.000065 0.001045
v 0.010660 -0.000065 0.000000
v 0.010609 -0.000065 -0.001045
v 0.010455 -0.000065 -0.002080
v 0.010201 -0.000065 -0.003095
v 0.009849 -0.000065 -0.004079
v 0.009402 -0.000065 -0.005025
v 0.008864 -0.000065 -0.005923
v 0.008241 -0.000065 -0.006763
v 0.007538 -0.000065 -0.007538
v 0.006763 -0.000065 -0.008240
v 0.005923 -0.000065 -0.008864
v 0.005025 -0.000065 -0.009402
v 0.004080 -0.000065 -0.009849
v -0.000000 -0.000065 -0.010660
v -0.001045 -0.000065 -0.010609
v -0.002080 -0.000065 -0.010455
v -0.003095 -0.000065 -0.010201
v -0.004080 -0.000065 -0.009849
v -0.005025 -0.000065 -0.009402
v -0.005923 -0.000065 -0.008864
v -0.006763 -0.000065 -0.008241
v -0.007538 -0.000065 -0.007538
v -0.008241 -0.000065 -0.006763
v -0.008864 -0.000065 -0.005923
v -0.009402 -0.000065 -0.005025
v -0.009849 -0.000065 -0.004080
v -0.010201 -0.000065 -0.003095
v -0.010455 -0.000065 -0.002080
v -0.010609 -0.000065 -0.001045
v -0.010660 -0.000065 0.000000
v -0.010609 -0.000065 0.001045
v -0.010455 -0.000065 0.002080
v -0.010201 -0.000065 0.003095
v -0.009849 -0.000065 0.004080
v -0.009402 -0.000065 0.005025
v -0.008864 -0.000065 0.005923
v -0.008240 -0.000065 0.006763
v -0.007538 -0.000065 0.007538
v -0.006763 -0.000065 0.008241
v -0.005923 -0.000065 0.008864
v -0.005025 -0.000065 0.009402
v -0.004080 -0.000065 0.009849
v -0.003095 -0.000065 0.010201
v -0.002080 -0.000065 0.010455
v -0.001045 -0.000065 0.010609
v 0.000000 -0.000065 0.010660
v 0.001045 -0.000065 0.010609
v 0.002080 -0.000065 0.010455
v 0.003095 -0.000065 0.010201
v 0.004080 -0.000065 0.009849
v 0.005025 -0.000065 0.009402
v 0.005923 -0.000065 0.008864
v 0.006763 -0.000065 0.008240
v 0.007538 -0.000065 0.007538
v 0.008241 -0.000065 0.006763
v 0.008864 -0.000065 0.005923
v 0.009402 -0.000065 0.005025
v -0.015000 -0.002935 0.015000
v -0.015000 -0.002935 0.015000
v -0.015000 -0.002935 -0.015000
v -0.015000 -0.002935 -0.015000
v 0.015000 -0.002935 -0.015000
v 0.015000 -0.002935 -0.015000
v 0.015000 -0.002935 0.015000
v 0.015000 -0.002935 0.015000
v -0.015000 0.002935 0.015000
v -0.015000 0.002935 0.015000
v 0.015000 0.002935 0.015000
v 0.015000 0.002935 0.015000
v -0.015000 0.002935 -0.015000
v -0.015000 0.002935 -0.015000
v 0.015000 0.002935 -0.015000
v 0.015000 0.002935 -0.015000
v -0.012160 0.002935 0.000000
v -0.012102 0.002935 -0.001192
v -0.011927 0.002935 -0.002372
v -0.011637 0.002935 -0.003530
v -0.011235 0.002935 -0.004654
v -0.010724 0.002935 -0.005732
v -0.010111 0.002935 -0.006756
v -0.009400 0.002935 -0.007714
v -0.008599 0.002935 -0.008599
v -0.007714 0.002935 -0.009400
v -0.006756 0.002935 -0.010111
v -0.005732 0.002935 -0.010724
v -0.004654 0.002935 -0.011235
v -0.000000 0.002935 -0.012160
v 0.001192 0.002935 -0.012102
v 0.002372 0.002935 -0.011927
v 0.003530 0.002935 -0.011637
v 0.004654 0.002935 -0.011235
v 0.009400 0.002935 -0.007714
v 0.010111 0.002935 -0.006756
v 0.010724 0.002935 -0.005732
v 0.011235 0.002935 -0.004654
v 0.011637 0.002935 -0.003530
v 0.011927 0.002935 -0.002372
v 0.012102 0.002935 -0.001192
v 0.010111 0.002935 0.006756
v 0.009400 0.002935 0.007714
v 0.008599 0.002935 0.008599
v 0.007714 0.002935 0.009400
v 0.006756 0.002935 0.010111
v 0.005732 0.002935 0.010724
v 0.004654 0.002935 0.011235
v 0.003530 0.002935 0.011637
v 0.002372 0.002935 0.011927
v 0.001192 0.002935 0.012102
v -0.000000 0.002935 0.012160
v -0.001192 0.002935 0.012102
v -0.002372 0.002935 0.011927
v -0.003530 0.002935 0.011637
v -0.004654 0.002935 0.011235
v -0.005732 0.002935 0.010724
v -0.006756 0.002935 0.010111
v -0.007714 0.002935 0.009400
v -0.008599 0.002935 0.008599
v -0.009400 0.002935 0.007714
v -0.010111 0.002935 0.006756
v -0.010724 0.002935 0.005732
v -0.011235 0.002935 0.004654
v -0.011637 0.002935 0.003530
v -0.011927 0.002935 0.002372
v -0.012102 0.002935 0.001192
v 0.012102 0.002935 0.001192
v 0.011927 0.002935 0.002372
v 0.011637 0.002935 0.003530
v 0.011235 0.002935 0.004654
v 0.010724 0.002935 0.005732
v 0.009849 -0.000065 0.004080
v 0.010201 -0.000065 0.003095
v 0.004080 -0.000065 -0.009849
v 0.003095 -0.000065 -0.010201
v 0.002080 -0.000065 -0.010455
v 0.001045 -0.000065 -0.010609
v -0.000000 -0.000065 -0.010660
v -0.008240 -0.000065 0.006763
v -0.007538 -0.000065 0.007538
v -0.005923 -0.000065 0.008864
v -0.005025 -0.000065 0.009402
v -0.004080 -0.000065 0.009849
v -0.003095 -0.000065 0.010201
v -0.002080 -0.000065 0.010455
v -0.001045 -0.000065 0.010609
v 0.000000 -0.000065 0.010660
v 0.001045 -0.000065 0.010609
v 0.002080 -0.000065 0.010455
v 0.009402 -0.000065 0.005025
v 0.008864 -0.000065 0.005923
v 0.008241 -0.000065 0.006763
v 0.007538 -0.000065 0.007538
v 0.006763 -0.000065 0.008240
v 0.005923 -0.000065 0.008864
v 0.005025 -0.000065 0.009402
v 0.004080 -0.000065 0.009849
v 0.003095 -0.000065 0.010201
v -0.006763 -0.000065 0.008241
v -0.008864 -0.000065 0.005923
v -0.009402 -0.000065 0.005025
v -0.009849 -0.000065 0.004080
v -0.010201 -0.000065 0.003095
v -0.010455 -0.000065 0.002080
v -0.010609 -0.000065 0.001045
v -0.010660 -0.000065 0.000000
v -0.010609 -0.000065 -0.001045
v -0.010455 -0.000065 -0.002080
v -0.010201 -0.000065 -0.003095
v -0.009849 -0.000065 -0.004080
v -0.009402 -0.000065 -0.005025
v -0.008864 -0.000065 -0.005923
v -0.008241 -0.000065 -0.006763
v -0.007538 -0.000065 -0.007538
v -0.006763 -0.000065 -0.008241
v -0.005923 -0.000065 -0.008864
v -0.005025 -0.000065 -0.009402
v -0.004080 -0.000065 -0.009849
v -0.003530 0.002935 -0.011637
v -0.003095 -0.000065 -0.010201
v -0.002372 0.002935 -0.011927
v -0.002080 -0.000065 -0.010455
v -0.001192 0.002935 -0.012102
v -0.001045 -0.000065 -0.010609
v 0.005732 0.002935 -0.010724
v 0.005025 -0.000065 -0.009402
v 0.006756 0.002935 -0.010111
v 0.005923 -0.000065 -0.008864
v 0.007714 0.002935 -0.009400
v 0.006763 -0.000065 -0.008240
v 0.008599 0.002935 -0.008599
v 0.007538 -0.000065 -0.007538
v 0.008241 -0.000065 -0.006763
v 0.008864 -0.000065 -0.005923
v 0.009402 -0.000065 -0.005025
v 0.009849 -0.000065 -0.004079
v 0.010201 -0.000065 -0.003095
v 0.010455 -0.000065 -0.002080
v 0.010609 -0.000065 -0.001045
v 0.012160 0.002935 0.000000
v 0.010660 -0.000065 0.000000
v 0.010609 -0.000065 0.001045
v 0.010455 -0.000065 0.002080
vn 0.000000 -1.000000 -0.000000
vn 0.000000 -0.000000 1.000000
vn -1.000000 -0.000000 0.000000
vn -0.000000 0.000000 -1.000000
vn 1.000000 0.000000 -0.000000
vn -0.000000 1.000000 0.000000
vn -0.087700 0.447200 0.890100
vn -0.174500 0.447200 0.877200
vn -0.259600 0.447200 0.855900
vn -0.000000 0.447200 0.894400
vn -0.342300 0.447200 0.826300
vn -0.826300 0.447200 -0.342300
vn -0.855900 0.447200 -0.259600
vn -0.788800 0.447200 -0.421600
vn -0.743700 0.447200 -0.496900
vn -0.691400 0.447200 -0.567400
vn -0.632500 0.447200 -0.632500
vn -0.567400 0.447200 -0.691400
vn -0.496900 0.447200 -0.743700
vn -0.421600 0.447200 -0.788800
vn -0.342300 0.447200 -0.826300
vn -0.259600 0.447200 -0.855900
vn -0.174500 0.447200 -0.877200
vn -0.087700 0.447200 -0.890100
vn -0.000000 0.447200 -0.894400
vn 0.087700 0.447200 -0.890100
vn 0.174500 0.447200 -0.877200
vn 0.259600 0.447200 -0.855900
vn 0.342300 0.447200 -0.826300
vn 0.421600 0.447200 -0.788800
vn 0.496900 0.447200 -0.743700
vn 0.567400 0.447200 -0.691400
vn 0.632400 0.447200 -0.632500
vn 0.632500 0.447200 -0.632500
vn 0.691400 0.447200 -0.567400
vn 0.743700 0.447200 -0.496900
vn 0.788800 0.447200 -0.421600
vn 0.826300 0.447200 -0.342300
vn 0.855900 0.447200 -0.259600
vn 0.877200 0.447200 -0.174500
vn 0.890100 0.447200 -0.087700
vn 0.894400 0.447200 0.000000
vn 0.890100 0.447200 0.087700
vn 0.877200 0.447200 0.174500
vn 0.855900 0.447200 0.259600
vn 0.826300 0.447200 0.342300
vn 0.788800 0.447200 0.421600
vn 0.743700 0.447200 0.496900
vn 0.691400 0.447200 0.567400
vn 0.632500 0.447200 0.632500
vn 0.567400 0.447200 0.691400
vn 0.496900 0.447200 0.743700
vn 0.421600 0.447200 0.788800
vn 0.342300 0.447200 0.826300
vn 0.259600 0.447200 0.855900
vn 0.174500 0.447200 0.877200
vn 0.087700 0.447200 0.890100
vn -0.421600 0.447200 0.788800
vn -0.496900 0.447200 0.743700
vn -0.567400 0.447200 0.691400
vn -0.632500 0.447200 0.632500
vn -0.691400 0.447200 0.567400
vn -0.743700 0.447200 0.496900
vn -0.788800 0.447200 0.421600
vn -0.826300 0.447200 0.342300
vn -0.855900 0.447200 0.259600
vn -0.877200 0.447200 0.174500
vn -0.890100 0.447200 0.087700
vn -0.894400 0.447200 0.000000
vn -0.890100 0.447200 -0.087700
vn -0.877200 0.447200 -0.174500
s 1
f 2//1 3//1 4//1
f 137//2 143//2 6//2
f 7//3 139//3 138//3
f 149//4 8//4 141//4
f 142//5 151//5 148//5
f 27//6 152//6 26//6
f 53//6 146//6 52//6
f 167//7 73//7 74//8
f 169//9 168//8 74//8
f 105//6 121//6 76//6
f 166//10 215//10 73//7
f 170//11 169//9 212//9
f 207//12 206//13 210//13
f 208//14 207//12 209//12
f 178//15 208//14 227//14
f 178//15 228//15 229//16
f 180//17 179//16 229//16
f 180//17 230//17 231//18
f 181//18 231//18 232//19
f 182//19 232//19 233//20
f 183//20 233//20 234//21
f 185//22 184//21 234//21
f 186//23 185//22 235//22
f 186//23 226//23 225//24
f 187//24 225//24 224//25
f 188//25 224//25 223//26
f 189//26 223//26 222//27
f 191//28 190//27 222//27
f 191//28 221//28 220//29
f 192//29 220//29 219//30
f 194//31 193//30 219//30
f 194//31 218//31 236//32
f 195//32 236//32 217//33
f 196//34 217//33 216//35
f 197//35 216//35 237//36
f 199//37 198//36 237//36
f 200//38 199//37 238//37
f 201//39 200//38 239//38
f 202//40 201//39 240//39
f 202//40 241//40 242//41
f 203//41 242//41 243//42
f 154//43 153//42 243//42
f 154//43 244//43 245//44
f 155//44 245//44 246//45
f 156//45 246//45 247//46
f 157//46 247//46 248//47
f 158//47 248//47 249//48
f 160//49 159//48 249//48
f 160//49 250//49 251//50
f 162//51 161//50 251//50
f 162//51 252//51 253//52
f 163//52 253//52 254//53
f 165//54 164//53 254//53
f 165//54 255//54 257//55
f 256//55 257//55 259//56
f 260//57 258//56 259//56
f 166//10 260//57 261//57
f 262//58 170//11 211//11
f 262//58 263//58 265//59
f 264//59 265//59 267//60
f 268//61 266//60 267//60
f 268//61 269//61 270//62
f 171//62 270//62 271//63
f 172//63 271//63 272//64
f 173//64 272//64 273//65
f 174//65 273//65 274//66
f 175//66 274//66 275//67
f 177//68 176//67 275//67
f 277//69 177//68 276//68
f 277//69 278//69 279//70
f 205//71 204//70 279//70
f 205//71 280//71 210//13
f 1//1 2//1 4//1
f 5//2 137//2 6//2
f 145//3 7//3 138//3
f 140//4 149//4 141//4
f 144//5 142//5 148//5
f 150//6 10//6 11//6
f 147//6 152//6 9//6
f 150//6 11//6 12//6
f 150//6 146//6 10//6
f 150//6 12//6 13//6
f 152//6 150//6 26//6
f 150//6 13//6 14//6
f 39//6 40//6 152//6
f 150//6 14//6 15//6
f 38//6 39//6 152//6
f 150//6 15//6 16//6
f 37//6 38//6 152//6
f 150//6 16//6 17//6
f 36//6 37//6 152//6
f 150//6 17//6 18//6
f 35//6 36//6 152//6
f 150//6 18//6 19//6
f 34//6 35//6 152//6
f 150//6 19//6 20//6
f 33//6 34//6 152//6
f 150//6 20//6 21//6
f 32//6 33//6 152//6
f 150//6 21//6 22//6
f 31//6 32//6 152//6
f 150//6 22//6 23//6
f 30//6 31//6 152//6
f 150//6 23//6 24//6
f 29//6 30//6 152//6
f 150//6 24//6 25//6
f 28//6 29//6 152//6
f 150//6 25//6 26//6
f 27//6 28//6 152//6
f 147//6 9//6 68//6
f 152//6 41//6 9//6
f 152//6 40//6 41//6
f 147//6 68//6 69//6
f 146//6 147//6 52//6
f 147//6 69//6 70//6
f 146//6 67//6 10//6
f 147//6 70//6 71//6
f 65//6 66//6 146//6
f 147//6 71//6 72//6
f 64//6 65//6 146//6
f 147//6 72//6 42//6
f 63//6 64//6 146//6
f 147//6 42//6 43//6
f 62//6 63//6 146//6
f 147//6 43//6 44//6
f 61//6 62//6 146//6
f 147//6 44//6 45//6
f 60//6 61//6 146//6
f 147//6 45//6 46//6
f 59//6 60//6 146//6
f 147//6 46//6 47//6
f 58//6 59//6 146//6
f 147//6 47//6 48//6
f 57//6 58//6 146//6
f 147//6 48//6 49//6
f 56//6 57//6 146//6
f 147//6 49//6 50//6
f 55//6 56//6 146//6
f 147//6 50//6 51//6
f 54//6 55//6 146//6
f 147//6 51//6 52//6
f 53//6 54//6 146//6
f 168//8 167//7 74//8
f 212//9 169//9 74//8
f 146//6 66//6 67//6
f 135//6 136//6 76//6
f 133//6 134//6 135//6
f 93//6 95//6 96//6
f 129//6 130//6 131//6
f 129//6 125//6 128//6
f 125//6 126//6 127//6
f 123//6 124//6 125//6
f 121//6 122//6 123//6
f 120//6 121//6 113//6
f 117//6 118//6 119//6
f 115//6 116//6 117//6
f 115//6 120//6 114//6
f 111//6 112//6 113//6
f 109//6 110//6 111//6
f 109//6 105//6 108//6
f 105//6 106//6 107//6
f 103//6 104//6 105//6
f 105//6 97//6 103//6
f 99//6 100//6 101//6
f 99//6 101//6 98//6
f 97//6 93//6 96//6
f 93//6 94//6 95//6
f 101//6 97//6 98//6
f 92//6 75//6 213//6
f 90//6 91//6 92//6
f 90//6 82//6 89//6
f 86//6 87//6 88//6
f 84//6 85//6 86//6
f 84//6 86//6 83//6
f 82//6 78//6 81//6
f 78//6 79//6 80//6
f 76//6 77//6 78//6
f 76//6 132//6 135//6
f 89//6 82//6 86//6
f 97//6 102//6 103//6
f 125//6 129//6 123//6
f 76//6 129//6 131//6
f 105//6 107//6 108//6
f 109//6 111//6 113//6
f 214//6 93//6 90//6
f 211//11 170//11 212//9
f 125//6 127//6 128//6
f 78//6 80//6 81//6
f 86//6 82//6 83//6
f 132//6 133//6 135//6
f 88//6 89//6 86//6
f 82//6 90//6 97//6
f 92//6 213//6 214//6
f 76//6 131//6 132//6
f 115//6 117//6 120//6
f 114//6 120//6 113//6
f 105//6 109//6 113//6
f 101//6 102//6 97//6
f 97//6 90//6 93//6
f 92//6 214//6 90//6
f 82//6 105//6 78//6
f 121//6 129//6 76//6
f 105//6 113//6 121//6
f 105//6 82//6 97//6
f 117//6 119//6 120//6
f 167//7 166//10 73//7
f 129//6 121//6 123//6
f 105//6 76//6 78//6
f 209//12 207//12 210//13
f 227//14 208//14 209//12
f 228//15 178//15 227//14
f 179//16 178//15 229//16
f 230//17 180//17 229//16
f 181//18 180//17 231//18
f 182//19 181//18 232//19
f 183//20 182//19 233//20
f 184//21 183//20 234//21
f 235//22 185//22 234//21
f 226//23 186//23 235//22
f 187//24 186//23 225//24
f 188//25 187//24 224//25
f 189//26 188//25 223//26
f 190//27 189//26 222//27
f 221//28 191//28 222//27
f 192//29 191//28 220//29
f 193//30 192//29 219//30
f 218//31 194//31 219//30
f 195//32 194//31 236//32
f 196//34 195//32 217//33
f 197//35 196//34 216//35
f 198//36 197//35 237//36
f 238//37 199//37 237//36
f 239//38 200//38 238//37
f 240//39 201//39 239//38
f 241//40 202//40 240//39
f 203//41 202//40 242//41
f 153//42 203//41 243//42
f 244//43 154//43 243//42
f 155//44 154//43 245//44
f 156//45 155//44 246//45
f 157//46 156//45 247//46
f 158//47 157//46 248//47
f 159//48 158//47 249//48
f 250//49 160//49 249//48
f 161//50 160//49 251//50
f 252//51 162//51 251//50
f 163//52 162//51 253//52
f 164//53 163//52 254//53
f 255//54 165//54 254//53
f 256//55 165//54 257//55
f 258//56 256//55 259//56
f 261//57 260//57 259//56
f 215//10 166//10 261//57
f 263//58 262//58 211//11
f 264//59 262//58 265//59
f 266//60 264//59 267//60
f 269//61 268//61 267//60
f 171//62 268//61 270//62
f 172//63 171//62 271//63
f 173//64 172//63 272//64
f 174//65 173//64 273//65
f 175//66 174//65 274//66
f 176//67 175//66 275//67
f 276//68 177//68 275//67
f 278//69 277//69 276//68
f 204//70 277//69 279//70
f 280//71 205//71 279//70
f 206//13 205//71 210//13
