# Blender v2.72 (sub 0) OBJ File: 'flatled.blend'
# www.blender.org
o Cube
v -1.499997 -0.293491 1.500000
v -1.499997 -0.293490 -1.500000
v 1.500003 -0.293457 -1.500000
v 1.500003 -0.293458 1.500000
v -1.500003 0.293457 1.500000
v 1.499997 0.293490 1.500000
v -1.500003 0.293458 -1.500000
v 1.499997 0.293491 -1.500000
v 1.216026 0.293487 0.000000
v -1.216031 0.293461 0.000000
v -1.210176 0.293461 -0.119191
v -1.192666 0.293461 -0.237235
v -1.163670 0.293462 -0.352994
v -1.123467 0.293462 -0.465354
v -1.072444 0.293463 -0.573232
v -1.011094 0.293463 -0.675589
v -0.940006 0.293464 -0.771440
v -0.859865 0.293465 -0.859862
v -0.771444 0.293466 -0.940003
v -0.675593 0.293467 -1.011091
v -0.573235 0.293468 -1.072441
v -0.465357 0.293470 -1.123464
v -0.352998 0.293471 -1.163666
v -0.237239 0.293472 -1.192663
v -0.119195 0.293473 -1.210173
v -0.000003 0.293475 -1.216028
v 0.119192 0.293476 -1.210172
v 0.237236 0.293477 -1.192662
v 0.352995 0.293478 -1.163665
v 0.465354 0.293480 -1.123462
v 0.573231 0.293481 -1.072440
v 0.675588 0.293482 -1.011089
v 0.771439 0.293483 -0.940001
v 0.859861 0.293484 -0.859860
v 0.940001 0.293485 -0.771439
v 1.011089 0.293485 -0.675588
v 1.072439 0.293486 -0.573230
v 1.123461 0.293487 -0.465353
v 1.163664 0.293487 -0.352993
v 1.192660 0.293487 -0.237234
v 1.210170 0.293487 -0.119191
v 1.011088 0.293485 0.675588
v 0.940000 0.293484 0.771439
v 0.859860 0.293483 0.859861
v 0.771438 0.293482 0.940002
v 0.675587 0.293481 1.011090
v 0.573230 0.293480 1.072441
v 0.465352 0.293479 1.123463
v 0.352993 0.293478 1.163666
v 0.237234 0.293476 1.192663
v 0.119190 0.293475 1.210173
v -0.000002 0.293474 1.216029
v -0.119194 0.293473 1.210173
v -0.237237 0.293471 1.192663
v -0.352997 0.293470 1.163667
v -0.465356 0.293469 1.123464
v -0.573234 0.293468 1.072442
v -0.675592 0.293467 1.011091
v -0.771443 0.293466 0.940003
v -0.859864 0.293465 0.859863
v -0.940005 0.293464 0.771441
v -1.011093 0.293463 0.675590
v -1.072444 0.293462 0.573232
v -1.123466 0.293462 0.465355
v -1.163669 0.293461 0.352995
v -1.192666 0.293461 0.237236
v -1.210176 0.293461 0.119192
v 1.210170 0.293487 0.119192
v 1.192660 0.293487 0.237235
v 1.163664 0.293487 0.352994
v 1.123461 0.293486 0.465354
v 1.072439 0.293486 0.573231
v 0.104493 -0.006524 -1.060895
v 0.207975 -0.006523 -1.045544
v 0.309455 -0.006522 -1.020125
v 0.984882 -0.006515 0.407951
v 1.020126 -0.006515 0.309451
v 1.045545 -0.006514 0.207972
v 1.060896 -0.006514 0.104489
v 1.066029 -0.006514 0.000000
v 1.060896 -0.006514 -0.104489
v 1.045545 -0.006514 -0.207971
v 1.020126 -0.006515 -0.309451
v 0.984883 -0.006515 -0.407950
v 0.940154 -0.006515 -0.502521
v 0.886371 -0.006516 -0.592252
v 0.824053 -0.006517 -0.676280
v 0.753798 -0.006517 -0.753795
v 0.676283 -0.006518 -0.824050
v 0.592256 -0.006519 -0.886369
v 0.502525 -0.006520 -0.940152
v 0.407954 -0.006521 -0.984881
v -0.000000 -0.006525 -1.066028
v -0.104489 -0.006527 -1.060895
v -0.207972 -0.006528 -1.045545
v -0.309452 -0.006529 -1.020126
v -0.407951 -0.006530 -0.984882
v -0.502522 -0.006531 -0.940153
v -0.592254 -0.006532 -0.886370
v -0.676281 -0.006533 -0.824051
v -0.753796 -0.006534 -0.753796
v -0.824051 -0.006535 -0.676281
v -0.886370 -0.006535 -0.592254
v -0.940153 -0.006536 -0.502522
v -0.984882 -0.006536 -0.407951
v -1.020125 -0.006537 -0.309452
v -1.045545 -0.006537 -0.207972
v -1.060895 -0.006537 -0.104489
v -1.066028 -0.006537 0.000000
v -1.060895 -0.006537 0.104489
v -1.045545 -0.006537 0.207972
v -1.020125 -0.006537 0.309452
v -0.984881 -0.006537 0.407952
v -0.940153 -0.006536 0.502523
v -0.886370 -0.006536 0.592254
v -0.824050 -0.006535 0.676282
v -0.753795 -0.006534 0.753796
v -0.676281 -0.006533 0.824052
v -0.592253 -0.006532 0.886371
v -0.502521 -0.006532 0.940153
v -0.407950 -0.006530 0.984882
v -0.309451 -0.006529 1.020126
v -0.207971 -0.006528 1.045545
v -0.104488 -0.006527 1.060895
v 0.000001 -0.006526 1.066028
v 0.104490 -0.006525 1.060895
v 0.207973 -0.006524 1.045545
v 0.309453 -0.006523 1.020125
v 0.407953 -0.006522 0.984881
v 0.502524 -0.006521 0.940153
v 0.592255 -0.006520 0.886370
v 0.676282 -0.006519 0.824050
v 0.753797 -0.006518 0.753795
v 0.824052 -0.006517 0.676280
v 0.886371 -0.006516 0.592253
v 0.940154 -0.006516 0.502522
v -1.499997 -0.293491 1.500000
v -1.499997 -0.293491 1.500000
v -1.499997 -0.293490 -1.500000
v -1.499997 -0.293490 -1.500000
v 1.500003 -0.293457 -1.500000
v 1.500003 -0.293457 -1.500000
v 1.500003 -0.293458 1.500000
v 1.500003 -0.293458 1.500000
v -1.500003 0.293457 1.500000
v -1.500003 0.293457 1.500000
v 1.499997 0.293490 1.500000
v 1.499997 0.293490 1.500000
v -1.500003 0.293458 -1.500000
v -1.500003 0.293458 -1.500000
v 1.499997 0.293491 -1.500000
v 1.499997 0.293491 -1.500000
v -1.216031 0.293461 0.000000
v -1.210176 0.293461 -0.119191
v -1.192666 0.293461 -0.237235
v -1.163670 0.293462 -0.352994
v -1.123467 0.293462 -0.465354
v -1.072444 0.293463 -0.573232
v -1.011094 0.293463 -0.675589
v -0.940006 0.293464 -0.771440
v -0.859865 0.293465 -0.859862
v -0.771444 0.293466 -0.940003
v -0.675593 0.293467 -1.011091
v -0.573235 0.293468 -1.072441
v -0.465357 0.293470 -1.123464
v -0.000003 0.293475 -1.216028
v 0.119192 0.293476 -1.210172
v 0.237236 0.293477 -1.192662
v 0.352995 0.293478 -1.163665
v 0.465354 0.293480 -1.123462
v 0.940001 0.293485 -0.771439
v 1.011089 0.293485 -0.675588
v 1.072439 0.293486 -0.573230
v 1.123461 0.293487 -0.465353
v 1.163664 0.293487 -0.352993
v 1.192660 0.293487 -0.237234
v 1.210170 0.293487 -0.119191
v 1.011088 0.293485 0.675588
v 0.940000 0.293484 0.771439
v 0.859860 0.293483 0.859861
v 0.771438 0.293482 0.940002
v 0.675587 0.293481 1.011090
v 0.573230 0.293480 1.072441
v 0.465352 0.293479 1.123463
v 0.352993 0.293478 1.163666
v 0.237234 0.293476 1.192663
v 0.119190 0.293475 1.210173
v -0.000002 0.293474 1.216029
v -0.119194 0.293473 1.210173
v -0.237237 0.293471 1.192663
v -0.352997 0.293470 1.163667
v -0.465356 0.293469 1.123464
v -0.573234 0.293468 1.072442
v -0.675592 0.293467 1.011091
v -0.771443 0.293466 0.940003
v -0.859864 0.293465 0.859863
v -0.940005 0.293464 0.771441
v -1.011093 0.293463 0.675590
v -1.072444 0.293462 0.573232
v -1.123466 0.293462 0.465355
v -1.163669 0.293461 0.352995
v -1.192666 0.293461 0.237236
v -1.210176 0.293461 0.119192
v 1.210170 0.293487 0.119192
v 1.192660 0.293487 0.237235
v 1.163664 0.293487 0.352994
v 1.123461 0.293486 0.465354
v 1.072439 0.293486 0.573231
v 0.984882 -0.006515 0.407951
v 1.020126 -0.006515 0.309451
v 0.407954 -0.006521 -0.984881
v 0.309455 -0.006522 -1.020125
v 0.207975 -0.006523 -1.045544
v 0.104493 -0.006524 -1.060895
v -0.000000 -0.006525 -1.066028
v -0.824050 -0.006535 0.676282
v -0.753795 -0.006534 0.753796
v -0.592253 -0.006532 0.886371
v -0.502521 -0.006532 0.940153
v -0.407950 -0.006530 0.984882
v -0.309451 -0.006529 1.020126
v -0.207971 -0.006528 1.045545
v -0.104488 -0.006527 1.060895
v 0.000001 -0.006526 1.066028
v 0.104490 -0.006525 1.060895
v 0.207973 -0.006524 1.045545
v 0.940154 -0.006516 0.502522
v 0.886371 -0.006516 0.592253
v 0.824052 -0.006517 0.676280
v 0.753797 -0.006518 0.753795
v 0.676282 -0.006519 0.824050
v 0.592255 -0.006520 0.886370
v 0.502524 -0.006521 0.940153
v 0.407953 -0.006522 0.984881
v 0.309453 -0.006523 1.020125
v -0.676281 -0.006533 0.824052
v -0.886370 -0.006536 0.592254
v -0.940153 -0.006536 0.502523
v -0.984881 -0.006537 0.407952
v -1.020125 -0.006537 0.309452
v -1.045545 -0.006537 0.207972
v -1.060895 -0.006537 0.104489
v -1.066028 -0.006537 0.000000
v -1.060895 -0.006537 -0.104489
v -1.045545 -0.006537 -0.207972
v -1.020125 -0.006537 -0.309452
v -0.984882 -0.006536 -0.407951
v -0.940153 -0.006536 -0.502522
v -0.886370 -0.006535 -0.592254
v -0.824051 -0.006535 -0.676281
v -0.753796 -0.006534 -0.753796
v -0.676281 -0.006533 -0.824051
v -0.592254 -0.006532 -0.886370
v -0.502522 -0.006531 -0.940153
v -0.407951 -0.006530 -0.984882
v -0.352998 0.293471 -1.163666
v -0.309452 -0.006529 -1.020126
v -0.237239 0.293472 -1.192663
v -0.207972 -0.006528 -1.045545
v -0.119195 0.293473 -1.210173
v -0.104489 -0.006527 -1.060895
v 0.573231 0.293481 -1.072440
v 0.502525 -0.006520 -0.940152
v 0.675588 0.293482 -1.011089
v 0.592256 -0.006519 -0.886369
v 0.771439 0.293483 -0.940001
v 0.676283 -0.006518 -0.824050
v 0.859861 0.293484 -0.859860
v 0.753798 -0.006517 -0.753795
v 0.824053 -0.006517 -0.676280
v 0.886371 -0.006516 -0.592252
v 0.940154 -0.006515 -0.502521
v 0.984883 -0.006515 -0.407950
v 1.020126 -0.006515 -0.309451
v 1.045545 -0.006514 -0.207971
v 1.060896 -0.006514 -0.104489
v 1.216026 0.293487 0.000000
v 1.066029 -0.006514 0.000000
v 1.060896 -0.006514 0.104489
v 1.045545 -0.006514 0.207972
vn 0.000000 -1.000000 -0.000000
vn 0.000000 -0.000000 1.000000
vn -1.000000 -0.000000 0.000000
vn -0.000000 0.000000 -1.000000
vn 1.000000 0.000000 -0.000000
vn -0.000000 1.000000 0.000000
vn -0.174500 0.447200 0.877200
vn -0.087700 0.447200 0.890100
vn -0.259600 0.447200 0.855900
vn -0.000000 0.447200 0.894400
vn -0.342300 0.447200 0.826300
vn -0.826300 0.447200 -0.342300
vn -0.855900 0.447200 -0.259600
vn -0.788800 0.447200 -0.421600
vn -0.743700 0.447200 -0.496900
vn -0.691400 0.447200 -0.567400
vn -0.632500 0.447200 -0.632500
vn -0.567400 0.447200 -0.691400
vn -0.496900 0.447200 -0.743700
vn -0.421600 0.447200 -0.788800
vn -0.342300 0.447200 -0.826300
vn -0.259600 0.447200 -0.855900
vn -0.174500 0.447200 -0.877200
vn -0.087700 0.447200 -0.890100
vn -0.000000 0.447200 -0.894400
vn 0.087700 0.447200 -0.890100
vn 0.174500 0.447200 -0.877200
vn 0.259600 0.447200 -0.855900
vn 0.342300 0.447200 -0.826300
vn 0.421600 0.447200 -0.788800
vn 0.496900 0.447200 -0.743700
vn 0.567400 0.447200 -0.691400
vn 0.632500 0.447200 -0.632500
vn 0.691400 0.447200 -0.567400
vn 0.743700 0.447200 -0.496900
vn 0.788800 0.447200 -0.421600
vn 0.826300 0.447200 -0.342300
vn 0.855900 0.447200 -0.259600
vn 0.877200 0.447200 -0.174500
vn 0.890100 0.447200 -0.087700
vn 0.894400 0.447200 -0.000000
vn 0.890100 0.447200 0.087700
vn 0.877200 0.447200 0.174500
vn 0.855900 0.447200 0.259600
vn 0.826300 0.447200 0.342300
vn 0.788800 0.447200 0.421600
vn 0.743700 0.447200 0.496900
vn 0.691400 0.447200 0.567400
vn 0.632500 0.447200 0.632500
vn 0.567400 0.447200 0.691400
vn 0.496900 0.447200 0.743700
vn 0.421600 0.447200 0.788800
vn 0.342300 0.447200 0.826300
vn 0.259600 0.447200 0.855900
vn 0.174500 0.447200 0.877200
vn 0.087700 0.447200 0.890100
vn -0.421600 0.447200 0.788800
vn -0.496900 0.447200 0.743700
vn -0.567400 0.447200 0.691400
vn -0.632500 0.447200 0.632500
vn -0.691400 0.447200 0.567400
vn -0.743700 0.447200 0.496900
vn -0.788800 0.447200 0.421600
vn -0.826300 0.447200 0.342300
vn -0.855900 0.447200 0.259600
vn -0.877200 0.447200 0.174500
vn -0.890100 0.447200 0.087700
vn -0.894400 0.447200 0.000000
vn -0.890100 0.447200 -0.087700
vn -0.877200 0.447200 -0.174500
s 1
f 2//1 3//1 4//1
f 137//2 143//2 6//2
f 7//3 139//3 138//3
f 149//4 8//4 141//4
f 142//5 151//5 148//5
f 27//6 152//6 26//6
f 53//6 146//6 52//6
f 168//7 167//8 73//8
f 168//7 74//7 212//9
f 105//6 132//6 82//6
f 166//10 215//10 73//8
f 170//11 169//9 212//9
f 207//12 206//13 210//13
f 207//12 209//12 227//14
f 208//14 227//14 228//15
f 178//15 228//15 229//16
f 179//16 229//16 230//17
f 180//17 230//17 231//18
f 182//19 181//18 231//18
f 183//20 182//19 232//19
f 183//20 233//20 234//21
f 185//22 184//21 234//21
f 186//23 185//22 235//22
f 186//23 226//23 225//24
f 187//24 225//24 224//25
f 188//25 224//25 223//26
f 189//26 223//26 222//27
f 191//28 190//27 222//27
f 192//29 191//28 221//28
f 192//29 220//29 219//30
f 193//30 219//30 218//31
f 194//31 218//31 236//32
f 195//32 236//32 217//33
f 196//33 217//33 216//34
f 198//35 197//34 216//34
f 199//36 198//35 237//35
f 199//36 238//36 239//37
f 201//38 200//37 239//37
f 202//39 201//38 240//38
f 202//39 241//39 242//40
f 153//41 203//40 242//40
f 153//41 243//41 244//42
f 154//42 244//42 245//43
f 156//44 155//43 245//43
f 156//44 246//44 247//45
f 157//45 247//45 248//46
f 158//46 248//46 249//47
f 160//48 159//47 249//47
f 160//48 250//48 251//49
f 161//49 251//49 252//50
f 162//50 252//50 253//51
f 164//52 163//51 253//51
f 164//52 254//52 255//53
f 256//54 165//53 255//53
f 256//54 257//54 259//55
f 260//56 258//55 259//55
f 260//56 261//56 215//10
f 262//57 170//11 211//11
f 262//57 263//57 265//58
f 266//59 264//58 265//58
f 268//60 266//59 267//59
f 268//60 269//60 270//61
f 172//62 171//61 270//61
f 172//62 271//62 272//63
f 173//63 272//63 273//64
f 174//64 273//64 274//65
f 176//66 175//65 274//65
f 176//66 275//66 276//67
f 277//68 177//67 276//67
f 277//68 278//68 279//69
f 204//69 279//69 280//70
f 206//13 205//70 280//70
f 1//1 2//1 4//1
f 5//2 137//2 6//2
f 145//3 7//3 138//3
f 140//4 149//4 141//4
f 144//5 142//5 148//5
f 150//6 10//6 11//6
f 147//6 152//6 9//6
f 150//6 11//6 12//6
f 150//6 146//6 10//6
f 150//6 12//6 13//6
f 152//6 150//6 26//6
f 150//6 13//6 14//6
f 39//6 40//6 152//6
f 150//6 14//6 15//6
f 38//6 39//6 152//6
f 150//6 15//6 16//6
f 37//6 38//6 152//6
f 150//6 16//6 17//6
f 36//6 37//6 152//6
f 150//6 17//6 18//6
f 35//6 36//6 152//6
f 150//6 18//6 19//6
f 34//6 35//6 152//6
f 150//6 19//6 20//6
f 33//6 34//6 152//6
f 150//6 20//6 21//6
f 32//6 33//6 152//6
f 150//6 21//6 22//6
f 31//6 32//6 152//6
f 150//6 22//6 23//6
f 30//6 31//6 152//6
f 150//6 23//6 24//6
f 29//6 30//6 152//6
f 150//6 24//6 25//6
f 28//6 29//6 152//6
f 150//6 25//6 26//6
f 27//6 28//6 152//6
f 147//6 9//6 68//6
f 152//6 41//6 9//6
f 152//6 40//6 41//6
f 147//6 68//6 69//6
f 146//6 147//6 52//6
f 147//6 69//6 70//6
f 146//6 67//6 10//6
f 147//6 70//6 71//6
f 65//6 66//6 146//6
f 147//6 71//6 72//6
f 64//6 65//6 146//6
f 147//6 72//6 42//6
f 63//6 64//6 146//6
f 147//6 42//6 43//6
f 62//6 63//6 146//6
f 147//6 43//6 44//6
f 61//6 62//6 146//6
f 147//6 44//6 45//6
f 60//6 61//6 146//6
f 147//6 45//6 46//6
f 59//6 60//6 146//6
f 147//6 46//6 47//6
f 58//6 59//6 146//6
f 147//6 47//6 48//6
f 57//6 58//6 146//6
f 147//6 48//6 49//6
f 56//6 57//6 146//6
f 147//6 49//6 50//6
f 55//6 56//6 146//6
f 147//6 50//6 51//6
f 54//6 55//6 146//6
f 147//6 51//6 52//6
f 53//6 54//6 146//6
f 74//7 168//7 73//8
f 169//9 168//7 212//9
f 146//6 66//6 67//6
f 76//6 77//6 136//6
f 135//6 132//6 134//6
f 126//6 129//6 132//6
f 129//6 130//6 131//6
f 127//6 128//6 129//6
f 127//6 129//6 126//6
f 123//6 124//6 125//6
f 123//6 125//6 122//6
f 120//6 113//6 115//6
f 119//6 120//6 118//6
f 115//6 116//6 117//6
f 113//6 114//6 115//6
f 111//6 112//6 113//6
f 111//6 113//6 110//6
f 107//6 108//6 109//6
f 105//6 106//6 107//6
f 103//6 104//6 105//6
f 101//6 102//6 103//6
f 99//6 100//6 101//6
f 99//6 101//6 98//6
f 95//6 96//6 97//6
f 93//6 94//6 95//6
f 120//6 117//6 118//6
f 214//6 93//6 105//6
f 90//6 91//6 92//6
f 90//6 83//6 89//6
f 90//6 82//6 83//6
f 86//6 87//6 85//6
f 122//6 125//6 120//6
f 82//6 79//6 81//6
f 129//6 131//6 132//6
f 78//6 132//6 77//6
f 136//6 77//6 132//6
f 132//6 133//6 134//6
f 97//6 98//6 93//6
f 75//6 213//6 214//6
f 125//6 105//6 109//6
f 117//6 120//6 115//6
f 211//11 170//11 212//9
f 105//6 107//6 109//6
f 87//6 83//6 85//6
f 98//6 101//6 93//6
f 93//6 95//6 97//6
f 75//6 214//6 105//6
f 90//6 92//6 105//6
f 87//6 88//6 89//6
f 82//6 90//6 105//6
f 79//6 80//6 81//6
f 135//6 136//6 132//6
f 125//6 126//6 132//6
f 113//6 109//6 110//6
f 113//6 125//6 109//6
f 103//6 105//6 93//6
f 121//6 122//6 120//6
f 89//6 83//6 87//6
f 83//6 84//6 85//6
f 92//6 75//6 105//6
f 125//6 132//6 105//6
f 103//6 93//6 101//6
f 82//6 132//6 78//6
f 113//6 120//6 125//6
f 167//8 166//10 73//8
f 82//6 78//6 79//6
f 209//12 207//12 210//13
f 208//14 207//12 227//14
f 178//15 208//14 228//15
f 179//16 178//15 229//16
f 180//17 179//16 230//17
f 181//18 180//17 231//18
f 232//19 182//19 231//18
f 233//20 183//20 232//19
f 184//21 183//20 234//21
f 235//22 185//22 234//21
f 226//23 186//23 235//22
f 187//24 186//23 225//24
f 188//25 187//24 224//25
f 189//26 188//25 223//26
f 190//27 189//26 222//27
f 221//28 191//28 222//27
f 220//29 192//29 221//28
f 193//30 192//29 219//30
f 194//31 193//30 218//31
f 195//32 194//31 236//32
f 196//33 195//32 217//33
f 197//34 196//33 216//34
f 237//35 198//35 216//34
f 238//36 199//36 237//35
f 200//37 199//36 239//37
f 240//38 201//38 239//37
f 241//39 202//39 240//38
f 203//40 202//39 242//40
f 243//41 153//41 242//40
f 154//42 153//41 244//42
f 155//43 154//42 245//43
f 246//44 156//44 245//43
f 157//45 156//44 247//45
f 158//46 157//45 248//46
f 159//47 158//46 249//47
f 250//48 160//48 249//47
f 161//49 160//48 251//49
f 162//50 161//49 252//50
f 163//51 162//50 253//51
f 254//52 164//52 253//51
f 165//53 164//52 255//53
f 257//54 256//54 255//53
f 258//55 256//54 259//55
f 261//56 260//56 259//55
f 166//10 260//56 215//10
f 263//57 262//57 211//11
f 264//58 262//57 265//58
f 267//59 266//59 265//58
f 269//60 268//60 267//59
f 171//61 268//60 270//61
f 271//62 172//62 270//61
f 173//63 172//62 272//63
f 174//64 173//63 273//64
f 175//65 174//64 274//65
f 275//66 176//66 274//65
f 177//67 176//66 276//67
f 278//68 277//68 276//67
f 204//69 277//68 279//69
f 205//70 204//69 280//70
f 210//13 206//13 280//70
