# Blender v2.72 (sub 0) OBJ File: 'room.blend'
# www.blender.org
o Cube
v -2.250000 0.000000 2.250000
v -2.250000 0.000000 -2.250000
v 2.250000 0.000000 -2.250000
v 2.250000 0.000000 2.250000
v -2.250000 2.500000 2.250000
v -2.250000 2.500000 -2.250000
v 2.250000 2.500000 -2.250000
v 2.250000 2.500000 2.250000
vn 1.000000 0.000000 0.000000
vn 0.000000 0.000000 1.000000
vn -1.000000 0.000000 0.000000
vn 0.000000 0.000000 -1.000000
vn 0.000000 1.000000 0.000000
vn 0.000000 -1.000000 0.000000
s off
f 1//1 2//1 6//1
f 2//2 3//2 7//2
f 3//3 4//3 8//3
f 4//4 1//4 5//4
f 4//5 3//5 2//5
f 5//6 6//6 7//6
f 5//1 1//1 6//1
f 6//2 2//2 7//2
f 7//3 3//3 8//3
f 8//4 4//4 5//4
f 1//5 4//5 2//5
f 8//6 5//6 7//6
